<svg xmlns="http://www.w3.org/2000/svg" viewBox="0 0 512 512">
  <!-- Background -->
  <rect width="512" height="512" rx="80" fill="#1a5c38"/>
  <!-- Gold border -->
  <rect x="20" y="20" width="472" height="472" rx="64" fill="none" stroke="#c9a84c" stroke-width="8"/>
  <!-- Spade shape -->
  <path d="M256 80
    C256 80 140 160 140 240
    C140 290 180 310 220 300
    C210 330 195 350 170 360
    L342 360
    C317 350 302 330 292 300
    C332 310 372 290 372 240
    C372 160 256 80 256 80Z"
    fill="#c9a84c"/>
  <!-- Spider legs (stylized) -->
  <line x1="150" y1="220" x2="100" y2="180" stroke="#c9a84c" stroke-width="10" stroke-linecap="round"/>
  <line x1="148" y1="240" x2="90"  y2="240" stroke="#c9a84c" stroke-width="10" stroke-linecap="round"/>
  <line x1="152" y1="260" x2="100" y2="290" stroke="#c9a84c" stroke-width="10" stroke-linecap="round"/>
  <line x1="362" y1="220" x2="412" y2="180" stroke="#c9a84c" stroke-width="10" stroke-linecap="round"/>
  <line x1="364" y1="240" x2="422" y2="240" stroke="#c9a84c" stroke-width="10" stroke-linecap="round"/>
  <line x1="360" y1="260" x2="412" y2="290" stroke="#c9a84c" stroke-width="10" stroke-linecap="round"/>
  <!-- Title text -->
  <text x="256" y="430" text-anchor="middle" font-family="serif" font-size="52" font-weight="bold" fill="#c9a84c">SPIDER</text>
</svg>
